<svg width="60" height="62" viewBox="0 0 60 62" fill="none" xmlns="http://www.w3.org/2000/svg">
<path d="M30 22.9291C25.6993 22.9291 22.1895 26.5559 22.1895 31C22.1895 35.4441 25.6993 39.0709 30 39.0709C34.3008 39.0709 37.8106 35.4441 37.8106 31C37.8106 26.5559 34.3008 22.9291 30 22.9291ZM53.4258 31C53.4258 27.6578 53.4551 24.3459 53.2735 21.0098C53.0918 17.1348 52.2364 13.6957 49.4942 10.8621C46.7461 8.02245 43.4239 7.14453 39.6739 6.95683C36.4395 6.76913 33.2344 6.79941 30.0059 6.79941C26.7715 6.79941 23.5664 6.76913 20.3379 6.95683C16.5879 7.14453 13.2598 8.02851 10.5176 10.8621C7.76957 13.7018 6.91996 17.1348 6.73832 21.0098C6.55667 24.3519 6.58597 27.6639 6.58597 31C6.58597 34.3361 6.55667 37.6541 6.73832 40.9902C6.91996 44.8652 7.77542 48.3043 10.5176 51.1379C13.2657 53.9775 16.5879 54.8555 20.3379 55.0432C23.5723 55.2309 26.7774 55.2006 30.0059 55.2006C33.2403 55.2006 36.4453 55.2309 39.6739 55.0432C43.4239 54.8555 46.752 53.9715 49.4942 51.1379C52.2422 48.2982 53.0918 44.8652 53.2735 40.9902C53.461 37.6541 53.4258 34.3422 53.4258 31ZM30 43.4182C23.3496 43.4182 17.9825 37.8721 17.9825 31C17.9825 24.1279 23.3496 18.5818 30 18.5818C36.6504 18.5818 42.0176 24.1279 42.0176 31C42.0176 37.8721 36.6504 43.4182 30 43.4182ZM42.5098 20.9734C40.9571 20.9734 39.7032 19.6777 39.7032 18.0732C39.7032 16.4687 40.9571 15.173 42.5098 15.173C44.0625 15.173 45.3164 16.4687 45.3164 18.0732C45.3169 18.4542 45.2446 18.8316 45.1037 19.1837C44.9629 19.5357 44.7561 19.8556 44.4954 20.1251C44.2347 20.3945 43.9251 20.6081 43.5844 20.7536C43.2437 20.8992 42.8785 20.9739 42.5098 20.9734Z" fill="white"/>
</svg>
