<svg width="50" height="50" viewBox="0 0 50 50" fill="none" xmlns="http://www.w3.org/2000/svg">
<path d="M25 0.999756C11.745 0.999756 1 11.7448 1 24.9998C1 38.2548 11.745 48.9998 25 48.9998C38.255 48.9998 49 38.2548 49 24.9998C49 11.7448 38.255 0.999756 25 0.999756ZM34.23 28.0773C34.23 28.0773 36.3525 30.1723 36.875 31.1448C36.89 31.1648 36.8975 31.1848 36.9025 31.1948C37.115 31.5523 37.165 31.8298 37.06 32.0373C36.885 32.3823 36.285 32.5523 36.08 32.5673H32.33C32.07 32.5673 31.525 32.4998 30.865 32.0448C30.3575 31.6898 29.8575 31.1073 29.37 30.5398C28.6425 29.6948 28.0125 28.9648 27.3775 28.9648C27.2969 28.9646 27.2167 28.9773 27.14 29.0023C26.66 29.1573 26.045 29.8423 26.045 31.6673C26.045 32.2373 25.595 32.5648 25.2775 32.5648H23.56C22.975 32.5648 19.9275 32.3598 17.2275 29.5123C13.9225 26.0248 10.9475 19.0298 10.9225 18.9648C10.735 18.5123 11.1225 18.2698 11.545 18.2698H15.3325C15.8375 18.2698 16.0025 18.5773 16.1175 18.8498C16.2525 19.1673 16.7475 20.4298 17.56 21.8498C18.8775 24.1648 19.685 25.1048 20.3325 25.1048C20.4539 25.1033 20.5732 25.0724 20.68 25.0148C21.525 24.5448 21.3675 21.5323 21.33 20.9073C21.33 20.7898 21.3275 19.5598 20.895 18.9698C20.585 18.5423 20.0575 18.3798 19.7375 18.3198C19.867 18.141 20.0377 17.9961 20.235 17.8973C20.815 17.6073 21.86 17.5648 22.8975 17.5648H23.475C24.6 17.5798 24.89 17.6523 25.2975 17.7548C26.1225 17.9523 26.14 18.4848 26.0675 20.3073C26.045 20.8248 26.0225 21.4098 26.0225 22.0998C26.0225 22.2498 26.015 22.4098 26.015 22.5798C25.99 23.5073 25.96 24.5598 26.615 24.9923C26.7004 25.0458 26.7992 25.0744 26.9 25.0748C27.1275 25.0748 27.8125 25.0748 29.6675 21.8923C30.2396 20.8679 30.7367 19.8034 31.155 18.7073C31.1925 18.6423 31.3025 18.4423 31.4325 18.3648C31.5284 18.3158 31.6348 18.291 31.7425 18.2923H36.195C36.68 18.2923 37.0125 18.3648 37.075 18.5523C37.185 18.8498 37.055 19.7573 35.0225 22.5098L34.115 23.7073C32.2725 26.1223 32.2725 26.2448 34.23 28.0773Z" fill="white"/>
</svg>
