<svg width="51" height="57" viewBox="0 0 51 57" fill="none" xmlns="http://www.w3.org/2000/svg">
<path d="M49.6758 14.5424C49.3147 13.8849 48.7847 13.3356 48.1404 12.9513L27.6495 1.1152C26.9855 0.770199 26.2483 0.590088 25.5 0.590088C24.7517 0.590088 24.0144 0.770199 23.3504 1.1152L2.85955 12.9513C2.23172 13.3545 1.70917 13.9017 1.33531 14.5475C0.961449 15.1932 0.747063 15.9188 0.709961 16.664V40.3362C0.730202 41.0842 0.941638 41.8146 1.32413 42.4577C1.68522 43.1153 2.21526 43.6646 2.85955 44.0489L23.3504 55.885C24.0144 56.23 24.7517 56.4101 25.5 56.4101C26.2483 56.4101 26.9855 56.23 27.6495 55.885L48.1404 44.0489C48.7847 43.6646 49.3147 43.1153 49.6758 42.4577C50.0583 41.8146 50.2697 41.0842 50.29 40.3362V16.664C50.2697 15.916 50.0583 15.1856 49.6758 14.5424V14.5424ZM25.5 45.0259C22.6076 45.013 19.7692 44.2412 17.2686 42.7878C14.7679 41.3343 12.6925 39.25 11.2498 36.7432C9.80711 34.2364 9.0476 31.3949 9.04718 28.5026C9.04677 25.6103 9.80548 22.7686 11.2475 20.2614C12.6895 17.7542 14.7643 15.6693 17.2645 14.2151C19.7647 12.7609 22.6029 11.9884 25.4953 11.9746C28.3876 11.9608 31.233 12.7064 33.7469 14.1367C36.2609 15.5671 38.3554 17.6321 39.8212 20.1255L36.6666 22.1075L35.6616 22.6658L32.87 24.3686C31.9786 22.7159 30.5577 21.4106 28.8353 20.6625C27.113 19.9143 25.1891 19.7667 23.3728 20.2433C21.5564 20.7199 19.953 21.7931 18.8199 23.2905C17.6868 24.7879 17.0899 26.6227 17.125 28.5001C17.117 29.9528 17.5029 31.3806 18.2416 32.6315C18.9881 33.8622 20.0392 34.8796 21.2935 35.5858C22.5478 36.2919 23.9629 36.6628 25.4023 36.6628C26.8416 36.6628 28.2567 36.2919 29.511 35.5858C30.7653 34.8796 31.8164 33.8622 32.5629 32.6315L39.8212 36.8747C38.3516 39.3636 36.2569 41.4252 33.7448 42.855C31.2327 44.2849 28.3905 45.0332 25.5 45.0259ZM42.0266 29.4213H40.1841V31.2916H38.3696V29.4492H36.6666V27.6068H38.5091V25.7086H40.3237V27.551H42.1662L42.0266 29.4213ZM48.9221 29.4213H47.0796V31.2916H45.237V29.4492H43.4225V27.6068H45.237V25.7086H47.0796V27.551H48.9221V29.4213Z" fill="white"/>
</svg>
