<svg width="67" height="67" viewBox="0 0 67 67" fill="none" xmlns="http://www.w3.org/2000/svg">
<path d="M57.6758 19.5416C57.3147 18.884 56.7847 18.3346 56.1404 17.9503L35.6495 6.11364C34.9855 5.76862 34.2482 5.5885 33.5 5.5885C32.7517 5.5885 32.0144 5.76862 31.3504 6.11364L10.8595 17.9503C10.2317 18.3536 9.70917 18.9008 9.33531 19.5466C8.96145 20.1923 8.74706 20.918 8.70996 21.6632V45.3366C8.7302 46.0846 8.94164 46.815 9.32413 47.4582C9.68522 48.1158 10.2153 48.6651 10.8595 49.0495L31.3504 60.8861C32.0144 61.2312 32.7517 61.4113 33.5 61.4113C34.2482 61.4113 34.9855 61.2312 35.6495 60.8861L56.1404 49.0495C56.7847 48.6651 57.3147 48.1158 57.6758 47.4582C58.0583 46.815 58.2697 46.0846 58.29 45.3366V21.6632C58.2697 20.9152 58.0583 20.1848 57.6758 19.5416ZM33.5 50.0266C30.6076 50.0136 27.7692 49.2418 25.2686 47.7883C22.7679 46.3347 20.6925 44.2503 19.2498 41.7434C17.8071 39.2365 17.0476 36.3948 17.0472 33.5024C17.0468 30.61 17.8055 27.7681 19.2475 25.2608C20.6895 22.7534 22.7643 20.6685 25.2645 19.2142C27.7647 17.7599 30.6029 16.9873 33.4953 16.9736C36.3876 16.9598 39.233 17.7054 41.7469 19.1358C44.2609 20.5662 46.3554 22.6314 47.8212 25.1249L44.6666 27.107L43.6616 27.6653L40.87 29.3682C39.9786 27.7154 38.5577 26.4101 36.8353 25.6619C35.113 24.9137 33.1891 24.7661 31.3728 25.2427C29.5564 25.7193 27.9529 26.7926 26.8199 28.29C25.6868 29.7875 25.0899 31.6224 25.125 33.4999C25.117 34.9527 25.5029 36.3805 26.2416 37.6316C26.9881 38.8622 28.0392 39.8797 29.2935 40.5859C30.5478 41.2921 31.9629 41.663 33.4023 41.663C34.8416 41.663 36.2567 41.2921 37.511 40.5859C38.7653 39.8797 39.8164 38.8622 40.5629 37.6316L47.8212 41.8749C46.3516 44.364 44.2569 46.4257 41.7448 47.8556C39.2327 49.2855 36.3905 50.0339 33.5 50.0266ZM50.0266 34.4211H48.1841V36.2916H46.3695V34.4491H44.6666V32.6066H46.5091V30.7082H48.3237V32.5507H50.1662L50.0266 34.4211ZM56.922 34.4211H55.0795V36.2916H53.237V34.4491H51.4225V32.6066H53.237V30.7082H55.0795V32.5507H56.922V34.4211Z" fill="black"/>
</svg>
