<svg width="67" height="67" viewBox="0 0 67 67" fill="none" xmlns="http://www.w3.org/2000/svg">
<path d="M44.6666 35.7333V31.2666H49.1333V35.7333H44.6666Z" fill="black"/>
<path fill-rule="evenodd" clip-rule="evenodd" d="M33.5 1.88057L62.5333 18.8182V48.182L33.5 65.1241L4.46667 48.182V18.8182L33.5 1.8761V1.88057ZM28.2829 17.8668C24.3357 17.8668 20.5502 19.4348 17.7591 22.2259C14.968 25.017 13.4 28.8025 13.4 32.7497V34.2505C13.4006 36.7866 14.0493 39.2805 15.2845 41.4955C16.5197 43.7105 18.3004 45.5731 20.4577 46.9066C22.6149 48.2401 25.0772 49.0002 27.6107 49.1147C30.1442 49.2293 32.665 48.6945 34.9338 47.5612L36.7339 46.6678L34.7328 42.6702L32.9372 43.5635C31.35 44.3576 29.5862 44.7328 27.8132 44.6535C26.0403 44.5742 24.317 44.043 22.807 43.1104C21.2971 42.1778 20.0506 40.8746 19.186 39.3248C18.3213 37.7749 17.8672 36.0297 17.8667 34.255V32.7542C17.8669 30.9791 18.3207 29.2336 19.185 27.6832C20.0494 26.1328 21.2956 24.829 22.8054 23.8956C24.3151 22.9621 26.0384 22.43 27.8117 22.3497C29.5849 22.2694 31.3492 22.6436 32.9372 23.4367L34.7328 24.3345L36.7339 20.3413L34.9338 19.4435C32.8679 18.4084 30.5892 17.8686 28.2785 17.8668H28.2829ZM40.2 22.3334V26.8001H35.7333V31.2668H40.2V35.7334H35.7333V40.2001H40.2V44.6668H44.6667V40.2001H49.1333V44.6668H53.6V40.2001H58.0667V35.7334H53.6V31.2668H58.0667V26.8001H53.6V22.3334H49.1333V26.8001H44.6667V22.3334H40.2Z" fill="black"/>
</svg>
