<svg width="67" height="67" viewBox="0 0 67 67" fill="none" xmlns="http://www.w3.org/2000/svg">
<path d="M24.7125 51.8098C24.7125 51.8098 22.1497 53.3027 26.5319 53.8031C31.8417 54.4145 34.5573 54.3286 40.403 53.2147C40.403 53.2147 41.9378 54.1862 44.088 55.0258C30.9707 60.6434 14.405 54.6887 24.7104 51.8098H24.7125ZM23.1066 44.4817C23.1066 44.4817 20.2277 46.6069 24.612 47.0528C30.2965 47.6412 34.7646 47.6977 42.5177 46.2049C42.5177 46.2049 43.5876 47.2852 45.2794 47.882C29.4234 52.5154 11.7564 48.2421 23.1087 44.4817H23.1066ZM36.6175 32.0407C39.844 35.7592 35.7654 39.1071 35.7654 39.1071C35.7654 39.1071 43.9666 34.863 40.2041 29.5658C36.6845 24.6141 33.9794 22.1623 48.5896 13.6868C48.5896 13.6868 25.6568 19.4132 36.6154 32.0427L36.6175 32.0407ZM53.958 57.241C53.958 57.241 55.857 58.7988 51.8747 60.0111C44.3058 62.2995 20.37 62.9863 13.7182 60.0969C11.3313 59.0605 15.812 57.6116 17.219 57.3164C18.6909 56.9898 19.5305 57.0568 19.5305 57.0568C16.8693 55.1808 2.34495 60.7313 12.15 62.3226C38.8997 66.6629 60.9029 60.3712 53.958 57.241ZM25.9436 36.8814C25.9436 36.8814 13.7643 39.7708 21.6242 40.8177C24.9512 41.2636 31.5716 41.1673 37.744 40.6439C42.7794 40.2167 47.8421 39.3122 47.8421 39.3122C47.8421 39.3122 46.0645 40.0744 44.7769 40.96C32.4091 44.2095 8.51942 42.6936 15.3995 39.3688C21.2117 36.5652 25.9436 36.8814 25.9436 36.8814ZM47.7856 49.0942C60.3481 42.5513 54.5359 36.2805 50.4907 37.1327C49.4962 37.3274 49.0502 37.5158 49.0502 37.5158C49.0502 37.5158 49.4104 36.9358 50.1201 36.6867C58.1455 33.8622 64.3179 45.0051 47.5344 49.423C47.5344 49.4125 47.7333 49.2492 47.7856 49.0963V49.0942ZM40.2062 0C40.2062 0 47.1659 6.95753 33.5984 17.665C22.7276 26.2577 31.1215 31.155 33.5984 36.7495C27.2522 31.0231 22.5957 25.9876 25.7154 21.2976C30.3049 14.3945 43.0098 11.0571 40.2062 0ZM27.1747 66.7927C39.2368 67.5548 57.7623 66.3572 58.2125 60.6538C58.2125 60.6538 57.3603 62.8125 48.2316 64.5336C37.9387 66.4745 25.2338 66.2441 17.6984 65.0026C17.6984 65.0026 19.2478 66.2776 27.1726 66.7927H27.1747Z" fill="black"/>
</svg>
